<svg width="249" height="80" viewBox="0 0 249 80" fill="none" xmlns="http://www.w3.org/2000/svg">
<path d="M88 40C88 25.31 98.2258 15 112.104 15C124.04 15 133.366 22.72 134.326 34.25H125.321C124.02 27 119.018 23.08 112.124 23.08C103.429 23.08 96.9351 29.56 96.9351 39.98C96.9351 50.4 103.429 56.89 112.124 56.89C119.238 56.89 124.421 52.82 125.591 45.71H134.426C133.466 57.3 124.07 65 112.014 65C98.1858 65 88 54.68 88 40ZM138.929 16.23C141.052 16.23 143.088 17.0729 144.589 18.5731C146.09 20.0734 146.933 22.1083 146.933 24.23V64.13H138.929V16.23ZM181.763 43.66V64.13H178.531C177.372 64.1304 176.255 63.6995 175.396 62.9212C174.538 62.1428 174.001 61.0729 173.889 59.92H173.679C171.747 62.92 167.675 64.92 162.842 64.92C156.219 64.92 151.836 60.99 151.836 55.33C151.836 49.95 155.768 46.33 163.843 45.12L173.709 43.67V43.32C173.722 41.7059 173.1 40.1512 171.977 38.9913C170.854 37.8314 169.32 37.1593 167.705 37.12C163.553 37.04 161.402 38.92 161.121 42.12H152.907C153.327 34.81 158.78 30.18 167.755 30.18C176.73 30.18 181.723 35 181.723 43.64L181.763 43.66ZM173.679 50.28V49.39L166.154 50.39C161.802 51.01 160.221 52.53 160.221 54.81C160.221 57.09 162.012 58.47 165.124 58.47C170.187 58.48 173.638 55.09 173.638 50.26L173.679 50.28ZM216.213 43.45V64.15H207.928V46.06C207.928 40.06 205.717 37.84 201.774 37.84C197.292 37.84 194.46 40.6 194.46 46.33V64.13H186.176V31.13H189.477C190.623 31.1275 191.728 31.5527 192.575 32.3223C193.423 33.0919 193.953 34.1504 194.06 35.29H194.33C196.331 32.19 200.274 30.29 204.756 30.29C211.61 30.25 216.173 35 216.173 43.43L216.213 43.45ZM247 56.91V64.15H220.315C220.309 60.3492 221.577 56.6559 223.917 53.66L235.844 38.35H220.585V31.08H246.48C246.477 34.9273 245.192 38.664 242.828 41.7L231.011 56.89L247 56.91Z" fill="#5217AF"/>
<path d="M73.8325 34.5686V12.9136C74.7671 12.6513 75.6168 12.1493 76.2972 11.4574C76.9775 10.7654 77.4649 9.90766 77.7109 8.96926C77.9568 8.03087 77.9528 7.0445 77.6993 6.10811C77.4458 5.17173 76.9515 4.31792 76.2656 3.63149C75.5797 2.94505 74.726 2.44988 73.7893 2.19514C72.8526 1.94041 71.8656 1.93498 70.9261 2.17939C69.9867 2.4238 69.1276 2.90956 68.4342 3.5884C67.7407 4.26725 67.2371 5.11557 66.9732 6.04911H45.2926C44.9648 4.88421 44.265 3.8583 43.2997 3.12758C42.3345 2.39687 41.1567 2.0014 39.9458 2.0014C38.7348 2.0014 37.5571 2.39687 36.5918 3.12758C35.6266 3.8583 34.9268 4.88421 34.599 6.04911H12.9183C12.6541 5.11632 12.1504 4.26877 11.4573 3.59053C10.7641 2.91229 9.90555 2.42693 8.96674 2.1826C8.02793 1.93827 7.04151 1.94345 6.10533 2.19764C5.16915 2.45183 4.31574 2.94619 3.62975 3.63169C2.94377 4.31718 2.44906 5.16998 2.19468 6.10549C1.94031 7.041 1.93512 8.02672 2.17963 8.96485C2.42414 9.90299 2.90984 10.7609 3.58857 11.4536C4.26729 12.1463 5.11545 12.6496 6.04891 12.9136V34.5686C4.84577 34.9146 3.79453 35.6558 3.06512 36.6726C2.33571 37.6894 1.97075 38.9223 2.02924 40.172C2.08774 41.4217 2.56626 42.6151 3.38746 43.5594C4.20867 44.5038 5.32456 45.1437 6.55475 45.3759C7.61215 51.6262 10.4732 57.4319 14.7867 62.0798C19.1001 66.7278 24.678 70.0158 30.8355 71.5399L34.4573 72.4396C34.4573 73.9143 35.0436 75.3286 36.0871 76.3714C37.1306 77.4142 38.5459 78 40.0217 78C41.4974 78 42.9127 77.4142 43.9562 76.3714C44.9997 75.3286 45.586 73.9143 45.586 72.4396L49.218 71.5298C55.3754 70.0057 60.9534 66.7177 65.2668 62.0697C69.5802 57.4218 72.4413 51.6161 73.4987 45.3658C74.7268 45.127 75.8384 44.4815 76.6543 43.5337C77.4701 42.5858 77.9425 41.3909 77.9951 40.1417C78.0477 38.8926 77.6775 37.6622 76.9443 36.6492C76.2111 35.6362 75.1576 34.8997 73.954 34.5585L73.8325 34.5686ZM48.0343 44.4661C46.8442 44.4486 45.68 44.8137 44.7133 45.5074C43.7465 46.2012 43.0283 47.1869 42.6646 48.3193C42.3008 49.4518 42.3107 50.671 42.6928 51.7974C43.0748 52.9238 43.8089 53.8978 44.7868 54.5758L40.3353 66.7277H39.9306H39.617L29.2269 36.8838L50.1892 32.4254C50.6671 33.3154 51.3778 34.0591 52.2455 34.5772C53.1132 35.0953 54.1054 35.3684 55.1162 35.3673C56.5424 35.3764 57.9168 34.8329 58.9505 33.8508L66.9328 38.5418C66.818 38.9913 66.7569 39.4528 66.7507 39.9167C66.7507 40.1391 66.7507 40.3615 66.7507 40.5738L52.3846 46.5689C51.8638 45.9146 51.2024 45.3859 50.4493 45.0219C49.6963 44.6579 48.8708 44.4679 48.0343 44.4661V44.4661ZM25.2307 34.6091L12.4833 37.3185C12.1287 36.6569 11.6453 36.0728 11.0615 35.6006C10.4777 35.1283 9.80539 34.7775 9.08399 34.5686V12.9136C9.39238 12.8219 9.69338 12.707 9.9844 12.5699L19.0897 22.7807C18.5066 23.6666 18.1937 24.7027 18.1893 25.7631C18.1919 27.2369 18.779 28.6497 19.822 29.6919C20.8649 30.7341 22.2787 31.3207 23.7536 31.3234H24.0773L25.2307 34.6091ZM68.4807 35.8728L60.4883 31.1819C60.6078 30.7333 60.669 30.2712 60.6704 29.807C60.6704 28.334 60.0855 26.9212 59.0442 25.8788C58.0029 24.8363 56.5902 24.2493 55.1162 24.2466C54.5204 24.2452 53.9287 24.3443 53.3659 24.5398L48.8841 17.9685L67.8534 10.8917C68.594 11.8665 69.6303 12.5758 70.8076 12.9136V34.5686C69.9371 34.8072 69.1383 35.2549 68.4807 35.8728ZM47.1137 15.3905L44.2101 11.1343C44.7073 10.5426 45.076 9.85406 45.2926 9.11235H63.9483L47.1137 15.3905ZM39.9407 13.1259C40.5398 13.1273 41.1349 13.0282 41.7011 12.8327L44.1899 16.4823L28.2253 22.4673C27.4582 21.4222 26.3488 20.6789 25.09 20.3667C23.8312 20.0545 22.5027 20.1932 21.3356 20.7588L12.2506 10.5985C12.5441 10.1417 12.769 9.6444 12.9183 9.12246H34.599C34.9361 10.2774 35.639 11.292 36.6021 12.0138C37.5653 12.7357 38.7368 13.1259 39.9407 13.1259V13.1259ZM29.3179 25.7631C29.3179 25.6114 29.3179 25.4598 29.3179 25.3081L45.9704 19.0704L50.867 26.2483C50.109 27.1453 49.6587 28.2614 49.5822 29.4329L28.2354 33.9722L26.9404 30.3124C27.6739 29.8014 28.2731 29.1209 28.687 28.3289C29.1009 27.5368 29.3174 26.6566 29.3179 25.7631V25.7631ZM9.58984 45.103C10.5822 44.7258 11.4454 44.0718 12.0767 43.2188C12.708 42.3657 13.0809 41.3494 13.151 40.2907L26.3031 37.5005L36.7539 67.7184C36.0851 68.1859 35.5259 68.793 35.1149 69.4977L31.4931 68.598C25.9614 67.214 20.9492 64.2588 17.0622 60.0893C13.1753 55.9199 10.5799 50.7148 9.58984 45.103V45.103ZM48.3884 68.598L44.7564 69.5078C44.3618 68.8245 43.8275 68.232 43.1883 67.769L47.6296 55.5665H48.0242C49.4999 55.5665 50.9152 54.9807 51.9588 53.9379C53.0023 52.8952 53.5885 51.4809 53.5885 50.0062C53.6039 49.7874 53.6039 49.5678 53.5885 49.3491L67.9647 43.3742C68.5731 44.1465 69.3762 44.7432 70.2916 45.103C69.3015 50.7148 66.7062 55.9199 62.8192 60.0893C58.9323 64.2588 53.9201 67.214 48.3884 68.598V68.598Z" fill="#5217AF"/>
<path d="M7.56635 37.3892C7.06611 37.3892 6.57711 37.5374 6.16118 37.8151C5.74525 38.0929 5.42107 38.4876 5.22964 38.9494C5.03821 39.4113 4.98812 39.9194 5.08571 40.4097C5.1833 40.9 5.42419 41.3503 5.77791 41.7038C6.13163 42.0573 6.5823 42.298 7.07292 42.3955C7.56355 42.493 8.07209 42.443 8.53425 42.2517C8.99641 42.0604 9.39142 41.7364 9.66934 41.3208C9.94725 40.9052 10.0956 40.4165 10.0956 39.9166C10.0956 39.2463 9.82912 38.6034 9.35479 38.1295C8.88047 37.6555 8.23715 37.3892 7.56635 37.3892ZM55.1161 27.2795C54.6158 27.2795 54.1268 27.4277 53.7109 27.7054C53.295 27.9831 52.9708 28.3779 52.7794 28.8397C52.5879 29.3015 52.5378 29.8097 52.6354 30.3C52.733 30.7903 52.9739 31.2406 53.3276 31.5941C53.6813 31.9475 54.132 32.1882 54.6226 32.2858C55.1133 32.3833 55.6218 32.3332 56.084 32.1419C56.5461 31.9507 56.9411 31.6267 57.2191 31.2111C57.497 30.7954 57.6453 30.3068 57.6453 29.8069C57.6426 29.1374 57.3753 28.4961 56.9016 28.0227C56.4278 27.5493 55.786 27.2821 55.1161 27.2795V27.2795ZM48.0342 47.4989C47.534 47.4989 47.045 47.6472 46.629 47.9249C46.2131 48.2026 45.8889 48.5973 45.6975 49.0591C45.506 49.521 45.456 50.0292 45.5536 50.5194C45.6511 51.0097 45.892 51.46 46.2457 51.8135C46.5995 52.167 47.0501 52.4077 47.5408 52.5052C48.0314 52.6027 48.5399 52.5527 49.0021 52.3614C49.4642 52.1701 49.8593 51.8462 50.1372 51.4305C50.4151 51.0149 50.5634 50.5262 50.5634 50.0264C50.5608 49.3569 50.2934 48.7155 49.8197 48.2421C49.3459 47.7687 48.7042 47.5016 48.0342 47.4989V47.4989ZM39.9406 69.7403C39.4404 69.7403 38.9514 69.8885 38.5355 70.1663C38.1195 70.444 37.7953 70.8387 37.6039 71.3005C37.4125 71.7624 37.3624 72.2705 37.46 72.7608C37.5576 73.2511 37.7985 73.7014 38.1522 74.0549C38.5059 74.4084 38.9566 74.6491 39.4472 74.7466C39.9378 74.8441 40.4464 74.7941 40.9085 74.6028C41.3707 74.4115 41.7657 74.0875 42.0436 73.6719C42.3215 73.2563 42.4699 72.7676 42.4699 72.2677C42.4672 71.5982 42.1999 70.9569 41.7261 70.4835C41.2524 70.0101 40.6106 69.743 39.9406 69.7403V69.7403ZM72.3149 37.3892C71.8147 37.3892 71.3257 37.5374 70.9097 37.8151C70.4938 38.0929 70.1696 38.4876 69.9782 38.9494C69.7868 39.4113 69.7367 39.9194 69.8343 40.4097C69.9318 40.9 70.1727 41.3503 70.5265 41.7038C70.8802 42.0573 71.3308 42.298 71.8215 42.3955C72.3121 42.493 72.8206 42.443 73.2828 42.2517C73.745 42.0604 74.14 41.7364 74.4179 41.3208C74.6958 40.9052 74.8441 40.4165 74.8441 39.9166C74.8441 39.2463 74.5777 38.6034 74.1033 38.1295C73.629 37.6555 72.9857 37.3892 72.3149 37.3892ZM23.7535 23.2356C23.2533 23.2356 22.7643 23.3838 22.3483 23.6615C21.9324 23.9393 21.6082 24.334 21.4168 24.7958C21.2253 25.2576 21.1753 25.7658 21.2728 26.2561C21.3704 26.7464 21.6113 27.1967 21.965 27.5502C22.3188 27.9036 22.7694 28.1444 23.2601 28.2419C23.7507 28.3394 24.2592 28.2894 24.7214 28.0981C25.1835 27.9068 25.5786 27.5828 25.8565 27.1672C26.1344 26.7515 26.2827 26.2629 26.2827 25.763C26.2827 25.0927 26.0163 24.4498 25.5419 23.9759C25.0676 23.5019 24.4243 23.2356 23.7535 23.2356V23.2356ZM7.56635 5.03809C7.06611 5.03809 6.57711 5.18632 6.16118 5.46403C5.74525 5.74175 5.42107 6.13648 5.22964 6.59831C5.03821 7.06014 4.98812 7.56832 5.08571 8.05859C5.1833 8.54887 5.42419 8.99921 5.77791 9.35268C6.13163 9.70615 6.5823 9.94686 7.07292 10.0444C7.56355 10.1419 8.07209 10.0919 8.53425 9.90056C8.99641 9.70926 9.39142 9.38532 9.66934 8.96968C9.94725 8.55405 10.0956 8.0654 10.0956 7.56552C10.0956 6.8952 9.82912 6.25234 9.35479 5.77835C8.88047 5.30437 8.23715 5.03809 7.56635 5.03809ZM39.9406 5.03809C39.4404 5.03809 38.9514 5.18632 38.5355 5.46403C38.1195 5.74175 37.7953 6.13648 37.6039 6.59831C37.4125 7.06014 37.3624 7.56832 37.46 8.05859C37.5576 8.54887 37.7985 8.99921 38.1522 9.35268C38.5059 9.70615 38.9566 9.94686 39.4472 10.0444C39.9378 10.1419 40.4464 10.0919 40.9085 9.90056C41.3707 9.70926 41.7657 9.38532 42.0436 8.96968C42.3215 8.55405 42.4699 8.0654 42.4699 7.56552C42.4699 6.8952 42.2034 6.25234 41.7291 5.77835C41.2547 5.30437 40.6114 5.03809 39.9406 5.03809ZM72.3149 5.03809C71.8147 5.03809 71.3257 5.18632 70.9097 5.46403C70.4938 5.74175 70.1696 6.13648 69.9782 6.59831C69.7868 7.06014 69.7367 7.56832 69.8343 8.05859C69.9318 8.54887 70.1727 8.99921 70.5265 9.35268C70.8802 9.70615 71.3308 9.94686 71.8215 10.0444C72.3121 10.1419 72.8206 10.0919 73.2828 9.90056C73.745 9.70926 74.14 9.38532 74.4179 8.96968C74.6958 8.55405 74.8441 8.0654 74.8441 7.56552C74.8441 6.8952 74.5777 6.25234 74.1033 5.77835C73.629 5.30437 72.9857 5.03809 72.3149 5.03809Z" fill="#D4BCFD"/>
</svg>
